<svg xmlns="http://www.w3.org/2000/svg" xmlns:svg="http://www.w3.org/2000/svg" id="svg2" viewBox="0 0 100 100"><circle id="circle833" cx="50" cy="50" r="45.9" style="fill-rule:evenodd;clip-rule:evenodd;fill:#fff;stroke:#515151;stroke-width:3.1319;stroke-linecap:round;stroke-linejoin:round"/><linearGradient id="SVGID_1_" x1="50.269" x2="49.697" y1="-1470.94" y2="-1392.786" gradientTransform="matrix(1 0 0 -1 0 -1384.1102)" gradientUnits="userSpaceOnUse"><stop id="stop835" offset="0" style="stop-color:gray"/><stop id="stop837" offset="1" style="stop-color:#4b4b4d"/></linearGradient><path id="path840" d="M56.7 13.7c.1.5.2 1 .2 1.5.0 3.8-3.1 6.9-6.9 6.9s-6.9-3.1-6.9-6.9c0-.5.1-1 .2-1.5 2.2-.4 4.5-.6 6.7-.6C52.3 13 54.5 13.3 56.7 13.7zM30.6 22.1c0 7.7 4.5 14.4 11.1 17.5v35.1L50 83l8.3-8.3-.5-7.3 3.9-3.9-3.9-3.9 5.9-5.9-5.9-5.9.5-8.2c6.5-3.1 11.1-9.8 11.1-17.5.0-1.3-.1-2.5-.4-3.8C80.1 25 86.9 37 87 50c0 20.4-16.5 37-37 37-20.4.0-37-16.5-37-37 0-13 6.8-25 18-31.7C30.8 19.6 30.6 20.8 30.6 22.1zM44.5 44.2h2.8v27.7h-2.8V44.2v0 0z" style="fill:url(#SVGID_1_)"/><linearGradient id="SVGID_2_" x1="73.8" x2="73.8" y1="1532.138" y2="1574.004" gradientTransform="matrix(1 0 0 1 0 -1484)" gradientUnits="userSpaceOnUse"><stop id="stop842" offset="0" style="stop-color:#d69029"/><stop id="stop844" offset="1" style="stop-color:#af7125"/></linearGradient><rect style="fill:red;stroke-width:.991528;fill-opacity:.50439882" id="rect845" width="40" height="40" x="60" y="60"/><rect id="rect847" width="35" height="35" x="65" y="65" style="fill:red;fill-opacity:1;stroke-width:.867586"/><g style="font-style:normal;font-variant:normal;font-weight:700;font-stretch:normal;font-size:43.6198px;line-height:1.25;font-family:sans-serif;-inkscape-font-specification:'sans-serif Bold';fill:#f9f9f9;fill-opacity:1;stroke:none;stroke-width:1.09049" id="text946" aria-label="X" transform="scale(0.99105545,1.0090253)"><path id="path849" d="M97.875515 96.132332H88.418879L81.581986 85.695954 74.617301 96.132332H65.58664L76.832369 80.158284 65.820926 64.418522h9.435337l6.602607 9.882611 6.794295-9.882611h9.05196l-11.07534 15.420281z" style="stroke-width:1.09049"/></g></svg>