<svg xmlns="http://www.w3.org/2000/svg" xmlns:svg="http://www.w3.org/2000/svg" id="svg2" version="1.1" viewBox="0 0 100 100"><metadata id="metadata856"/><circle id="circle833" cx="50" cy="50" r="45.9" style="fill-rule:evenodd;clip-rule:evenodd;fill:#fff;stroke:#515151;stroke-width:3.1319;stroke-linecap:round;stroke-linejoin:round"/><linearGradient id="SVGID_1_" x1="50.269" x2="49.697" y1="-1470.94" y2="-1392.786" gradientTransform="matrix(1 0 0 -1 0 -1384.1102)" gradientUnits="userSpaceOnUse"><stop id="stop835" offset="0" style="stop-color:gray"/><stop id="stop837" offset="1" style="stop-color:#4b4b4d"/></linearGradient><path id="path840" d="M56.7 13.7c.1.5.2 1 .2 1.5.0 3.8-3.1 6.9-6.9 6.9-3.8.0-6.9-3.1-6.9-6.9.0-.5.1-1 .2-1.5 2.2-.4 4.5-.6 6.7-.6C52.3 13 54.5 13.3 56.7 13.7zM30.6 22.1c0 7.7 4.5 14.4 11.1 17.5v35.1L50 83l8.3-8.3-.5-7.3 3.9-3.9-3.9-3.9 5.9-5.9-5.9-5.9.5-8.2c6.5-3.1 11.1-9.8 11.1-17.5.0-1.3-.1-2.5-.4-3.8C80.1 25 86.9 37 87 50c0 20.4-16.5 37-37 37-20.4.0-37-16.5-37-37 0-13 6.8-25 18-31.7C30.8 19.6 30.6 20.8 30.6 22.1zM44.5 44.2h2.8v27.7h-2.8V44.2v0 0z" style="fill:url(#SVGID_1_)"/><linearGradient id="SVGID_2_" x1="73.8" x2="73.8" y1="1532.138" y2="1574.004" gradientTransform="matrix(1 0 0 1 0 -1484)" gradientUnits="userSpaceOnUse"><stop id="stop842" offset="0" style="stop-color:#d69029"/><stop id="stop844" offset="1" style="stop-color:#af7125"/></linearGradient></svg>